<svg xmlns="http://www.w3.org/2000/svg" viewBox="0 0 600 780"><defs>
<radialGradient id="s-head" cx="0.36" cy="0.28" r="0.82"><stop offset="0" stop-color="#ffd7e2"/><stop offset="0.42" stop-color="#FF9DB6"/><stop offset="1" stop-color="#F57C9D"/></radialGradient>
<radialGradient id="s-ear" cx="0.45" cy="0.35" r="0.9"><stop offset="0" stop-color="#FFCAD8"/><stop offset="0.6" stop-color="#FF9DB6"/><stop offset="1" stop-color="#F57C9D"/></radialGradient>
<radialGradient id="s-snout" cx="0.42" cy="0.28" r="0.85"><stop offset="0" stop-color="#ffd8e0"/><stop offset="0.65" stop-color="#FFB8C6"/><stop offset="1" stop-color="#F57C9D"/></radialGradient>
<linearGradient id="s-coin" x1="0" y1="0" x2="0.3" y2="1"><stop offset="0" stop-color="#ffd787"/><stop offset="0.55" stop-color="#FFC247"/><stop offset="1" stop-color="#FF9F0A"/></linearGradient>
<radialGradient id="s-cheek"><stop offset="0" stop-color="#E0587F" stop-opacity="0.75"/><stop offset="1" stop-color="#E0587F" stop-opacity="0"/></radialGradient>
<clipPath id="s-coinclip"><rect x="150" y="-20" width="212" height="176"/></clipPath></defs><g transform="translate(0 0) scale(1) translate(44 60)"><g>

<g><path d="M146,214 C112,160 88,98 104,66 Q114,48 136,58 C178,80 222,116 246,156 Z" fill="url(#s-ear)"/>
<path d="M158,190 C134,150 118,108 126,86 Q132,76 144,82 C172,100 200,124 218,152 Z" fill="#F57C9D" opacity="0.9"/></g><g transform="matrix(-1 0 0 1 512 0)"><path d="M146,214 C112,160 88,98 104,66 Q114,48 136,58 C178,80 222,116 246,156 Z" fill="url(#s-ear)"/>
<path d="M158,190 C134,150 118,108 126,86 Q132,76 144,82 C172,100 200,124 218,152 Z" fill="#F57C9D" opacity="0.9"/></g>

<ellipse cx="256" cy="292" rx="182" ry="160" fill="url(#s-head)"/>
<ellipse cx="168" cy="196" rx="52" ry="22" transform="rotate(-32 168 196)" fill="#ffffff" opacity="0.5"/>
<circle cx="132" cy="236" r="9" fill="#ffffff" opacity="0.45"/>

<g clip-path="url(#s-coinclip)">
  <circle cx="256" cy="112" r="44" fill="url(#s-coin)" stroke="#FF9F0A" stroke-width="6"/>
  <circle cx="256" cy="112" r="28" fill="none" stroke="#FF9F0A" stroke-width="5" opacity="0.55"/>
  <path d="M232,94 Q244,80 262,78" fill="none" stroke="#ffffff" stroke-width="7" stroke-linecap="round" opacity="0.65"/>
</g>
<rect x="210" y="146" width="92" height="22" rx="11" fill="#6B3A4A"/>
<path d="M220,172 Q256,178 292,172" fill="none" stroke="#ffdae4" stroke-width="5" stroke-linecap="round" opacity="0.8"/>
<ellipse cx="136" cy="322" rx="40" ry="26" fill="url(#s-cheek)"/>
<ellipse cx="376" cy="322" rx="40" ry="26" fill="url(#s-cheek)"/>
<ellipse cx="186" cy="262" rx="28" ry="35" fill="#3A1E2A"/>
<circle cx="177" cy="249" r="11" fill="#FFFFFF"/><circle cx="195" cy="276" r="4.5" fill="#FFFFFF" opacity="0.9"/>
<ellipse cx="326" cy="262" rx="28" ry="35" fill="#3A1E2A"/>
<circle cx="317" cy="249" r="11" fill="#FFFFFF"/><circle cx="335" cy="276" r="4.5" fill="#FFFFFF" opacity="0.9"/>
<ellipse cx="256" cy="336" rx="68" ry="50" fill="url(#s-snout)"/>
<ellipse cx="236" cy="312" rx="20" ry="9" fill="#ffffff" opacity="0.55"/>
<ellipse cx="232" cy="338" rx="11" ry="17" fill="#E0587F"/>
<ellipse cx="280" cy="338" rx="11" ry="17" fill="#E0587F"/>
<path d="M226,404 Q256,428 286,404" fill="none" stroke="#3A1E2A" stroke-width="9" stroke-linecap="round"/>


</g></g><g transform="translate(44 540) scale(0.5) translate(12 112)"><g fill="none" stroke-width="44" stroke-linecap="round" stroke-linejoin="round">
  <path d="M22,22 V300 M178,100 A78,78 0 1,1 22,100 A78,78 0 1,1 178,100" transform="translate(0 12) rotate(-4 100 100)" stroke="#7E2244"/><path d="M258,22 V178" transform="translate(0 6) rotate(3 258 100)" stroke="#7E2244"/><path d="M494,100 A78,78 0 1,1 338,100 A78,78 0 1,1 494,100 M494,22 V222 A78,78 0 0,1 348.5,261" transform="translate(0 16) rotate(-3 416 100)" stroke="#7E2244"/><path d="M730,100 A78,78 0 1,1 574,100 A78,78 0 1,1 730,100 M730,22 V222 A78,78 0 0,1 584.5,261" transform="translate(0 8) rotate(4 652 100)" stroke="#7E2244"/><path d="M810,22 V100 A78,78 0 0,0 966,100 M966,22 V222 A78,78 0 0,1 820.5,261" transform="translate(0 14) rotate(-2 888 100)" stroke="#7E2244"/>
  <path d="M22,22 V300 M178,100 A78,78 0 1,1 22,100 A78,78 0 1,1 178,100" transform="translate(0 0) rotate(-4 100 100)" stroke="#A8325A"/><path d="M258,22 V178" transform="translate(0 -6) rotate(3 258 100)" stroke="#A8325A"/><path d="M494,100 A78,78 0 1,1 338,100 A78,78 0 1,1 494,100 M494,22 V222 A78,78 0 0,1 348.5,261" transform="translate(0 4) rotate(-3 416 100)" stroke="#A8325A"/><path d="M730,100 A78,78 0 1,1 574,100 A78,78 0 1,1 730,100 M730,22 V222 A78,78 0 0,1 584.5,261" transform="translate(0 -4) rotate(4 652 100)" stroke="#A8325A"/><path d="M810,22 V100 A78,78 0 0,0 966,100 M966,22 V222 A78,78 0 0,1 820.5,261" transform="translate(0 2) rotate(-2 888 100)" stroke="#A8325A"/>
</g>
<circle cx="262" cy="-58" r="34" fill="#7E2244" stroke="#7E2244" stroke-width="7"/>
<circle cx="262" cy="-70" r="34" fill="url(#s-coin)" stroke="#FF9F0A" stroke-width="7"/>
<path d="M244,-86 Q252,-96 266,-96" fill="none" stroke="#ffffff" stroke-width="7" stroke-linecap="round" opacity="0.7"/></g></svg>